<?xml version="1.0" standalone="no"?>
<!DOCTYPE svg PUBLIC "-//W3C//DTD SVG 20010904//EN"
 "http://www.w3.org/TR/2001/REC-SVG-20010904/DTD/svg10.dtd">
<svg version="1.0" xmlns="http://www.w3.org/2000/svg"
 width="96.000000pt" height="96.000000pt" viewBox="0 0 96.000000 96.000000"
 preserveAspectRatio="xMidYMid meet">

<g transform="translate(0.000000,96.000000) scale(0.100000,-0.100000)"
fill="#000000" stroke="none">
<path d="M423 869 c-73 -10 -170 -58 -221 -110 -79 -81 -114 -167 -114 -280 0
-176 113 -328 281 -378 56 -16 169 -17 218 -1 136 45 234 141 272 269 16 56
17 169 1 218 -64 197 -238 309 -437 282z m202 -101 c60 -31 115 -87 147 -148
19 -38 23 -60 23 -140 0 -83 -4 -101 -27 -145 -32 -60 -87 -115 -148 -147 -38
-19 -60 -23 -140 -23 -83 0 -101 4 -145 27 -60 32 -115 87 -147 148 -19 38
-23 60 -23 140 0 108 18 154 84 223 69 74 131 98 241 94 68 -3 95 -9 135 -29z"/>
<path d="M535 510 l-110 -110 -57 57 -58 57 -25 -24 -26 -24 83 -83 83 -83
137 137 138 137 -22 23 c-12 13 -24 23 -27 23 -4 0 -56 -49 -116 -110z"/>
</g>
</svg>
